# xmcd
#
# Track frame offsets: 
#        150
#        14728
#        29957
#        41630
#        55858
#        70824
#        87622
#        103206
#        114621
#        130147
#        143232
#        158422
#        172215
#        183857
#        199389
#        214984
#        229452
#        239832
#        253552
#        267322
#
# Disc length: 3769 seconds
#
# Revision: 1
# Processed by: cddbd v1.5PL3 Copyright (c) Steve Scherf et al.
# Submitted via: ExactAudioCopy v0.95a5
#
DISCID=400eb714
DTITLE=Glenn Miller - 40 Classic Tracks [CD 2)
DYEAR=1900
DGENRE=
TTITLE0=Don't Sit Under The Apple Tree
TTITLE1=American Patrol
TTITLE2=Fools Rush In
TTITLE3=At Last
TTITLE4=Moonlight Cocktail
TTITLE5=A Nightingale Sang In Berkeley Square
TTITLE6=Song Of The Volga Boatmen
TTITLE7=Over The Rainbow
TTITLE8=Take The'A'Train
TTITLE9=When You Wish Upon A Star
TTITLE10=It's A Blue World
TTITLE11=Long Tall Mama
TTITLE12=You And I
TTITLE13=Stardust
TTITLE14=Chatanooga Choo Choo
TTITLE15=Slow Freight
TTITLE16=Danny Boy
TTITLE17=That Old Black Magic
TTITLE18=Rhapsody In Blue
TTITLE19=Moonlight Serenade
EXTD=Tracks by B3
EXTT0=
EXTT1=
EXTT2=
EXTT3=
EXTT4=
EXTT5=
EXTT6=
EXTT7=
EXTT8=
EXTT9=
EXTT10=
EXTT11=
EXTT12=
EXTT13=
EXTT14=
EXTT15=
EXTT16=
EXTT17=
EXTT18=
EXTT19=
PLAYORDER=
